<?xml version="1.0" standalone="no"?>
<!DOCTYPE svg PUBLIC "-//W3C//DTD SVG 20010904//EN"
 "http://www.w3.org/TR/2001/REC-SVG-20010904/DTD/svg10.dtd">
<svg version="1.0" xmlns="http://www.w3.org/2000/svg"
 width="1024.000000pt" height="1024.000000pt" viewBox="0 0 1024.000000 1024.000000"
 preserveAspectRatio="xMidYMid meet">

<g transform="translate(0.000000,1024.000000) scale(0.100000,-0.100000)"
fill="#000000" stroke="none">
<path d="M5795 9190 c-3 -5 -2 -10 4 -10 5 0 13 5 16 10 3 6 2 10 -4 10 -5 0
-13 -4 -16 -10z"/>
<path d="M5669 9096 c-57 -46 -133 -115 -169 -152 -57 -59 -53 -57 25 17 50
46 127 113 173 148 74 58 89 71 79 71 -2 0 -50 -38 -108 -84z"/>
<path d="M5738 9110 c-22 -39 -15 -39 12 0 12 17 18 30 13 30 -4 0 -16 -14
-25 -30z"/>
<path d="M4505 9110 c-10 -11 -21 -18 -24 -16 -3 3 -22 -9 -41 -26 l-35 -30
33 22 c39 26 40 20 6 -26 -46 -60 -20 -36 34 31 50 62 65 87 27 45z"/>
<path d="M5700 9050 c-6 -11 -8 -20 -6 -20 3 0 10 9 16 20 6 11 8 20 6 20 -3
0 -10 -9 -16 -20z"/>
<path d="M4315 8971 c-44 -38 -102 -93 -130 -122 -30 -32 -16 -22 35 26 47 44
108 99 135 122 28 23 48 42 45 42 -3 1 -41 -30 -85 -68z"/>
<path d="M5656 8968 c-27 -59 -50 -137 -43 -145 3 -2 8 11 12 29 4 18 20 63
36 101 33 79 29 91 -5 15z"/>
<path d="M4380 8940 c-6 -11 -8 -20 -6 -20 3 0 10 9 16 20 6 11 8 20 6 20 -3
0 -10 -9 -16 -20z"/>
<path d="M4335 8858 c-26 -58 -55 -153 -54 -177 0 -9 9 14 19 51 11 36 31 91
44 122 14 31 23 56 20 56 -2 0 -15 -24 -29 -52z"/>
<path d="M5409 8843 l-24 -28 28 24 c15 14 27 26 27 28 0 8 -8 1 -31 -24z"/>
<path d="M5369 8793 c-29 -35 -41 -53 -36 -53 2 0 17 16 31 35 28 36 31 49 5
18z"/>
<path d="M5594 8753 c-12 -100 2 -249 36 -368 43 -152 44 -156 21 -107 -11 23
-25 42 -31 42 -13 0 -13 -27 0 -35 16 -10 12 -45 -6 -45 -10 0 -13 6 -10 18 4
13 1 19 -9 19 -8 0 -15 -4 -15 -9 0 -4 -6 -8 -14 -8 -7 0 -19 -6 -25 -13 -8
-10 -7 -14 4 -14 8 0 11 5 8 11 -4 6 -2 7 3 3 14 -14 11 -31 -8 -42 -12 -7
-14 -15 -8 -25 8 -13 10 -12 10 3 0 9 5 17 11 17 5 0 8 -4 5 -9 -4 -5 0 -12 6
-14 10 -4 9 -6 -1 -6 -11 -1 -11 -4 -1 -16 11 -13 10 -14 -4 -9 -10 4 -16 1
-16 -9 0 -9 -5 -19 -12 -23 -7 -5 -8 -3 -3 6 5 9 4 11 -4 6 -9 -6 -9 -11 0
-22 6 -7 15 -11 20 -8 5 3 6 -2 3 -10 -3 -9 -10 -14 -14 -13 -4 1 -8 -2 -8 -7
0 -5 -6 -13 -14 -17 -10 -7 -8 -9 7 -9 19 -1 19 -1 1 -11 -14 -9 -20 -8 -27 2
-6 10 -8 8 -6 -8 1 -17 5 -20 18 -12 30 16 35 9 9 -12 -14 -11 -18 -17 -10
-13 12 5 13 4 3 -6 -10 -11 -15 -11 -28 0 -13 11 -14 10 -9 -4 3 -9 13 -16 21
-16 18 0 12 -22 -8 -28 -11 -3 -11 -1 1 8 13 10 12 11 -3 6 -10 -3 -20 -6 -23
-6 -2 0 -1 -7 2 -15 4 -8 9 -13 13 -10 4 2 8 -2 8 -10 0 -8 -4 -12 -9 -9 -12
8 -10 -3 7 -36 9 -17 14 -30 11 -30 -6 0 -121 180 -145 229 -12 22 -24 41 -27
41 -14 0 89 -172 221 -370 229 -345 338 -549 387 -727 28 -103 31 -326 6 -420
-54 -198 -132 -331 -280 -476 -104 -102 -97 -103 37 -3 215 160 385 403 442
633 23 94 23 300 0 413 -35 168 -91 312 -252 651 -234 490 -294 683 -282 904
2 58 3 105 2 105 -2 0 -7 -25 -11 -57z m116 -600 c0 -3 -6 -1 -13 5 -7 6 -13
23 -14 39 -2 28 -2 27 12 -6 8 -18 15 -36 15 -38z m-103 51 c-3 -3 -12 -4 -19
-1 -8 3 -5 6 6 6 11 1 17 -2 13 -5z m3 -30 c0 -8 -5 -12 -10 -9 -6 4 -8 11 -5
16 9 14 15 11 15 -7z"/>
<path d="M4104 8758 l-29 -33 33 29 c17 17 32 31 32 33 0 8 -8 1 -36 -29z"/>
<path d="M5314 8718 c-4 -7 -14 -24 -22 -38 -14 -24 -13 -24 3 -5 20 24 37 55
31 55 -3 0 -8 -6 -12 -12z"/>
<path d="M4049 8693 c-13 -16 -12 -17 4 -4 9 7 17 15 17 17 0 8 -8 3 -21 -13z"/>
<path d="M4002 8628 c-30 -44 -60 -97 -49 -87 11 9 87 129 82 129 -2 0 -17
-19 -33 -42z"/>
<path d="M4273 8625 c0 -22 2 -30 4 -17 2 12 2 30 0 40 -3 9 -5 -1 -4 -23z"/>
<path d="M5256 8621 c-23 -43 -20 -52 5 -12 11 18 18 35 15 38 -2 3 -12 -9
-20 -26z"/>
<path d="M4265 8485 c5 -112 34 -238 89 -383 40 -105 46 -132 12 -58 -19 42
-24 46 -28 28 -4 -12 -3 -20 1 -17 4 2 8 -2 8 -10 0 -8 -4 -15 -8 -15 -5 0 -6
-7 -3 -15 4 -8 1 -15 -6 -15 -7 0 -10 8 -7 20 3 11 2 20 -2 20 -4 0 -6 17 -4
38 2 33 0 38 -20 39 -17 2 -19 0 -7 -7 8 -5 11 -10 6 -10 -5 0 -3 -7 4 -15 10
-12 10 -15 0 -15 -7 0 -10 -6 -7 -14 3 -8 2 -16 -4 -18 -5 -2 -13 -18 -18 -36
-6 -20 -6 -30 0 -27 5 3 6 -1 3 -9 -8 -20 -20 -20 -28 -1 -3 8 -11 15 -18 15
-11 0 -11 -2 0 -8 7 -5 10 -17 6 -28 -4 -14 -3 -15 4 -5 6 8 12 9 16 3 12 -19
-21 -20 -38 -1 -9 11 -22 17 -28 13 -8 -5 -5 -10 8 -15 13 -5 14 -8 4 -9 -10
0 -6 -5 9 -14 15 -8 20 -16 12 -20 -6 -4 -11 -1 -11 6 0 10 -2 10 -9 -1 -5 -7
-13 -11 -19 -7 -12 7 -23 -32 -17 -63 2 -12 0 -19 -4 -16 -5 3 -11 -2 -15 -10
-3 -8 -2 -15 2 -15 4 0 8 -9 8 -19 0 -11 -4 -17 -8 -15 -4 3 -8 1 -8 -5 0 -5
5 -11 11 -13 6 -2 9 -14 7 -26 -3 -21 -5 -20 -31 14 -16 19 -26 38 -22 42 3 3
10 0 15 -7 5 -10 8 -6 7 12 -2 23 -4 24 -19 10 -17 -15 -12 -21 -126 143 -7
11 -2 -1 10 -26 13 -25 112 -162 220 -306 273 -362 340 -469 401 -639 39 -110
50 -198 44 -336 -5 -138 -25 -216 -84 -334 -50 -98 -86 -148 -178 -244 -85
-90 -68 -84 61 21 247 200 394 471 394 726 0 145 -44 342 -117 527 -19 50
-102 227 -183 395 -216 444 -259 564 -280 780 l-9 95 4 -100z m38 -462 c-7 -2
-13 -12 -13 -20 0 -9 -3 -14 -6 -10 -10 10 4 37 18 36 10 0 10 -2 1 -6z m126
-98 c0 -5 -6 1 -14 15 -8 14 -14 30 -14 35 0 6 6 -1 14 -15 8 -14 14 -29 14
-35z m-242 -252 c-4 -3 1 -16 10 -27 18 -21 18 -21 -4 -2 -25 21 -30 36 -11
36 6 0 8 -3 5 -7z"/>
<path d="M5575 8489 c0 -26 4 -39 13 -39 10 0 12 9 7 33 -10 48 -20 51 -20 6z"/>
<path d="M3912 8465 c-17 -37 -14 -45 4 -12 9 16 14 31 11 33 -2 2 -9 -7 -15
-21z"/>
<path d="M5201 8474 c0 -11 3 -14 6 -6 3 7 2 16 -1 19 -3 4 -6 -2 -5 -13z"/>
<path d="M5185 8410 c-4 -23 -5 -43 -2 -46 2 -3 7 14 11 37 4 23 5 44 2 46 -2
2 -7 -14 -11 -37z"/>
<path d="M5575 8410 c-3 -5 -1 -19 5 -30 8 -16 7 -22 -9 -32 -15 -9 -17 -15
-9 -25 7 -9 7 -13 0 -13 -5 0 -8 -9 -5 -20 3 -11 9 -17 14 -14 5 3 6 11 2 17
-4 8 -1 7 9 -1 14 -12 17 -6 20 48 2 48 0 59 -11 55 -9 -3 -11 0 -7 10 6 17 0
20 -9 5z m12 -82 c2 -17 0 -19 -7 -8 -5 8 -6 18 -4 22 8 12 10 10 11 -14z"/>
<path d="M5610 8363 c0 -12 5 -25 10 -28 13 -8 13 15 0 35 -8 12 -10 11 -10
-7z"/>
<path d="M3871 8344 c0 -11 3 -14 6 -6 3 7 2 16 -1 19 -3 4 -6 -2 -5 -13z"/>
<path d="M3863 8285 c0 -22 2 -30 4 -17 2 12 2 30 0 40 -3 9 -5 -1 -4 -23z"/>
<path d="M5173 8265 c0 -33 2 -45 4 -27 2 18 2 45 0 60 -2 15 -4 0 -4 -33z"/>
<path d="M3853 8170 c0 -36 2 -50 4 -32 2 17 2 47 0 65 -2 17 -4 3 -4 -33z"/>
<path d="M4291 8204 c0 -11 3 -14 6 -6 3 7 2 16 -1 19 -3 4 -6 -2 -5 -13z"/>
<path d="M5182 8165 c0 -16 2 -22 5 -12 2 9 2 23 0 30 -3 6 -5 -1 -5 -18z"/>
<path d="M5191 8104 c0 -11 3 -14 6 -6 3 7 2 16 -1 19 -3 4 -6 -2 -5 -13z"/>
<path d="M3862 8060 c0 -14 2 -19 5 -12 2 6 2 18 0 25 -3 6 -5 1 -5 -13z"/>
<path d="M3872 8000 c0 -14 2 -19 5 -12 2 6 2 18 0 25 -3 6 -5 1 -5 -13z"/>
<path d="M4227 7999 c7 -7 15 -10 18 -7 3 3 -2 9 -12 12 -14 6 -15 5 -6 -5z"/>
<path d="M3881 7954 c0 -11 3 -14 6 -6 3 7 2 16 -1 19 -3 4 -6 -2 -5 -13z"/>
<path d="M5515 5990 c-3 -6 1 -7 9 -4 18 7 21 14 7 14 -6 0 -13 -4 -16 -10z"/>
<path d="M2103 4608 c4 -647 7 -777 21 -857 86 -497 263 -863 570 -1180 409
-421 912 -644 1661 -738 219 -28 812 -25 1030 5 658 89 1121 282 1471 614 l89
85 85 12 c378 54 786 203 1070 389 421 276 663 594 746 984 24 112 25 345 1
442 -59 238 -198 427 -385 524 -94 49 -159 69 -270 82 -204 26 -436 -55 -604
-210 l-68 -62 0 336 0 336 -2711 0 -2710 0 4 -762z m1160 665 c-7 -2 -19 -2
-25 0 -7 3 -2 5 12 5 14 0 19 -2 13 -5z m44 1 c-3 -3 -12 -4 -19 -1 -8 3 -5 6
6 6 11 1 17 -2 13 -5z m166 -1 c-7 -2 -19 -2 -25 0 -7 3 -2 5 12 5 14 0 19 -2
13 -5z m170 0 c-7 -2 -21 -2 -30 0 -10 3 -4 5 12 5 17 0 24 -2 18 -5z m3072
-3 c-388 -10 -2780 -10 -2835 -1 -25 4 666 8 1535 8 869 0 1454 -4 1300 -7z
m1610 -415 c166 -44 284 -144 360 -307 14 -29 25 -60 24 -68 0 -8 -11 9 -24
38 -30 65 -121 162 -195 207 -82 50 -222 93 -342 107 -90 9 -110 9 -158 -6
-30 -10 -62 -19 -70 -22 -8 -2 5 6 30 17 93 45 271 61 375 34z m-485 -93 c-13
-9 -52 -39 -85 -66 -33 -27 -51 -39 -40 -27 22 26 134 111 143 110 4 0 -4 -8
-18 -17z m183 -39 c-7 -2 -21 -2 -30 0 -10 3 -4 5 12 5 17 0 24 -2 18 -5z
m150 0 c-7 -2 -21 -2 -30 0 -10 3 -4 5 12 5 17 0 24 -2 18 -5z m-220 -10 c-7
-2 -19 -2 -25 0 -7 3 -2 5 12 5 14 0 19 -2 13 -5z m292 -3 c13 -5 14 -9 5 -9
-8 0 -24 4 -35 9 -13 5 -14 9 -5 9 8 0 24 -4 35 -9z m55 -20 c8 -5 11 -10 5
-10 -5 0 -17 5 -25 10 -8 5 -10 10 -5 10 6 0 17 -5 25 -10z m148 -98 l47 -43
-55 43 c-30 24 -66 51 -80 61 -24 17 -24 17 8 0 18 -10 54 -37 80 -61z m-679
64 c-2 -2 -15 -9 -29 -15 -24 -11 -24 -11 -6 3 16 13 49 24 35 12z m-80 -45
c-13 -11 -26 -18 -28 -15 -7 7 21 34 36 34 10 0 8 -6 -8 -19z m870 -160 c17
-33 31 -63 31 -67 0 -5 -16 20 -35 55 -19 35 -42 73 -52 85 -18 21 -18 21 3 3
12 -10 36 -44 53 -76z m169 -61 c0 -22 -1 -22 -8 5 -4 17 -8 39 -8 50 0 16 2
15 8 -5 4 -14 8 -36 8 -50z m9 -227 c-2 -38 -3 -7 -3 67 0 74 1 105 3 68 2
-38 2 -98 0 -135z m-120 115 c-3 -7 -5 -2 -5 12 0 14 2 19 5 13 2 -7 2 -19 0
-25z m10 -50 c-3 -7 -5 -2 -5 12 0 14 2 19 5 13 2 -7 2 -19 0 -25z m10 -170
c-2 -29 -3 -8 -3 47 0 55 1 79 3 53 2 -26 2 -71 0 -100z m-1059 -11 c130 -169
398 -263 643 -227 46 6 92 16 102 21 16 9 17 7 11 -18 -12 -49 -74 -183 -125
-269 -170 -288 -493 -552 -820 -670 -83 -30 -239 -75 -239 -69 0 3 18 34 40
70 191 313 316 759 321 1150 1 88 3 97 15 80 8 -11 31 -42 52 -68z m1149 -4
c-3 -10 -5 -4 -5 12 0 17 2 24 5 18 2 -7 2 -21 0 -30z m-10 -45 c-3 -8 -6 -5
-6 6 -1 11 2 17 5 13 3 -3 4 -12 1 -19z m-90 -45 c-3 -10 -5 -4 -5 12 0 17 2
24 5 18 2 -7 2 -21 0 -30z m80 5 c-3 -8 -6 -5 -6 6 -1 11 2 17 5 13 3 -3 4
-12 1 -19z m-10 -40 c-3 -8 -6 -5 -6 6 -1 11 2 17 5 13 3 -3 4 -12 1 -19z
m-80 -20 c-3 -8 -6 -5 -6 6 -1 11 2 17 5 13 3 -3 4 -12 1 -19z m-10 -50 c-3
-7 -5 -2 -5 12 0 14 2 19 5 13 2 -7 2 -19 0 -25z m57 -27 c-9 -23 -18 -40 -20
-38 -2 2 4 22 13 45 9 23 18 40 20 38 2 -2 -4 -22 -13 -45z m-117 -145 c-14
-31 -28 -56 -31 -56 -2 0 8 27 22 60 14 32 28 57 30 55 2 -2 -7 -29 -21 -59z
m54 17 c-11 -21 -27 -47 -36 -58 -16 -19 -17 -19 -3 5 8 14 23 40 32 58 9 17
19 32 21 32 3 0 -3 -17 -14 -37z m-3341 -68 c317 -37 591 -114 822 -231 383
-192 550 -450 468 -717 -63 -203 -309 -406 -640 -530 -100 -37 -232 -77 -339
-101 l-64 -15 26 27 c44 48 96 139 124 219 24 69 27 93 27 203 0 88 -5 144
-18 190 -24 90 -96 234 -151 302 -91 113 -249 210 -406 249 -112 29 -286 23
-405 -13 -232 -70 -420 -252 -501 -483 -24 -72 -27 -94 -28 -220 0 -108 4
-154 18 -200 26 -84 72 -171 119 -229 30 -35 36 -47 22 -43 -10 3 -57 13 -104
22 -189 38 -431 125 -575 208 -326 187 -461 422 -385 668 103 334 664 627
1336 698 137 14 519 12 654 -4z m3241 -32 c-5 -10 -17 -27 -26 -38 -16 -19
-17 -19 -3 5 26 46 29 50 34 50 3 0 0 -8 -5 -17z m40 0 c-5 -10 -45 -61 -88
-113 -83 -100 -200 -210 -318 -299 -56 -43 -60 -45 -20 -10 28 24 91 83 141
131 50 49 93 86 96 82 6 -5 115 121 168 194 26 35 36 42 21 15z m-101 -93
c-11 -16 -26 -33 -32 -36 -7 -4 1 9 16 29 34 44 46 50 16 7z m-40 -53 c0 -2
-12 -14 -27 -28 l-28 -24 24 28 c23 25 31 32 31 24z m-3337 -234 c-7 -2 -19
-2 -25 0 -7 3 -2 5 12 5 14 0 19 -2 13 -5z m157 -43 c8 -5 11 -10 5 -10 -5 0
-17 5 -25 10 -8 5 -10 10 -5 10 6 0 17 -5 25 -10z m56 -26 c18 -14 18 -14 -6
-3 -31 14 -36 19 -24 19 6 0 19 -7 30 -16z m145 -101 c8 -9 -5 -2 -28 17 -24
18 -43 35 -43 37 0 7 56 -35 71 -54z m2609 33 c0 -11 -107 -80 -123 -78 -9 0
-15 -3 -12 -8 3 -5 1 -11 -4 -14 -5 -4 -8 1 -7 10 1 8 29 29 62 45 32 17 63
34 69 40 10 10 15 12 15 5z m-2742 -23 c-16 -2 -40 -2 -55 0 -16 2 -3 4 27 4
30 0 43 -2 28 -4z m85 -38 c51 -21 114 -80 139 -129 12 -24 23 -68 26 -107 4
-56 1 -75 -20 -120 -33 -73 -66 -110 -128 -143 -202 -110 -436 56 -400 282 23
141 155 249 290 237 31 -2 73 -11 93 -20z m42 5 c3 -6 -1 -7 -9 -4 -18 7 -21
14 -7 14 6 0 13 -4 16 -10z m2455 -55 c0 -2 -10 -9 -22 -15 -22 -11 -22 -10
-4 4 21 17 26 19 26 11z m-110 -35 c-8 -5 -19 -10 -25 -10 -5 0 -3 5 5 10 8 5
20 10 25 10 6 0 3 -5 -5 -10z m60 5 c0 -2 -18 -14 -40 -25 -22 -11 -40 -18
-40 -15 0 2 17 13 38 24 42 23 42 23 42 16z m-110 -25 c-8 -5 -19 -10 -25 -10
-5 0 -3 5 5 10 8 5 20 10 25 10 6 0 3 -5 -5 -10z m-50 -20 c-8 -5 -19 -10 -25
-10 -5 0 -3 5 5 10 8 5 20 10 25 10 6 0 3 -5 -5 -10z m-85 -30 c-11 -5 -27 -9
-35 -9 -9 0 -8 4 5 9 11 5 27 9 35 9 9 0 8 -4 -5 -9z m95 -5 c-14 -8 -29 -14
-35 -14 -5 0 1 6 15 14 14 8 30 14 35 14 6 0 -1 -6 -15 -14z m-183 -21 c-3 -3
-12 -4 -19 -1 -8 3 -5 6 6 6 11 1 17 -2 13 -5z m-2577 -14 c-122 -13 -206 -50
-294 -131 -32 -29 -71 -75 -87 -103 -16 -28 -29 -46 -29 -41 0 20 47 87 98
139 89 91 212 145 327 144 l60 -1 -75 -7z m2537 4 c-3 -3 -12 -4 -19 -1 -8 3
-5 6 6 6 11 1 17 -2 13 -5z m143 -4 c-8 -5 -19 -10 -25 -10 -5 0 -3 5 5 10 8
5 20 10 25 10 6 0 3 -5 -5 -10z m-193 -6 c-3 -3 -12 -4 -19 -1 -8 3 -5 6 6 6
11 1 17 -2 13 -5z m-44 -11 c-7 -2 -19 -2 -25 0 -7 3 -2 5 12 5 14 0 19 -2 13
-5z m187 -3 c-8 -5 -19 -10 -25 -10 -5 0 -3 5 5 10 8 5 20 10 25 10 6 0 3 -5
-5 -10z m-233 -6 c-3 -3 -12 -4 -19 -1 -8 3 -5 6 6 6 11 1 17 -2 13 -5z m-64
-11 c-7 -2 -19 -2 -25 0 -7 3 -2 5 12 5 14 0 19 -2 13 -5z m-78 -10 c-16 -3
-36 -10 -43 -15 -9 -8 -11 -7 -6 6 4 11 17 16 43 15 34 -2 34 -2 6 -6z m242
-19 c-3 -3 -12 -4 -19 -1 -8 3 -5 6 6 6 11 1 17 -2 13 -5z m-297 -18 c0 -2 -8
-10 -17 -17 -16 -13 -17 -12 -4 4 13 16 21 21 21 13z m227 -2 c-3 -3 -12 -4
-19 -1 -8 3 -5 6 6 6 11 1 17 -2 13 -5z m-40 -10 c-3 -3 -12 -4 -19 -1 -8 3
-5 6 6 6 11 1 17 -2 13 -5z m-40 -10 c-3 -3 -12 -4 -19 -1 -8 3 -5 6 6 6 11 1
17 -2 13 -5z m-50 -10 c-3 -3 -12 -4 -19 -1 -8 3 -5 6 6 6 11 1 17 -2 13 -5z
m-122 -14 c3 -5 -1 -10 -10 -10 -9 0 -13 5 -10 10 3 6 8 10 10 10 2 0 7 -4 10
-10z m68 3 c-7 -2 -19 -2 -25 0 -7 3 -2 5 12 5 14 0 19 -2 13 -5z m-2662 -190
c-12 -20 -14 -14 -5 12 4 9 9 14 11 11 3 -2 0 -13 -6 -23z m-14 -45 c-3 -8 -6
-5 -6 6 -1 11 2 17 5 13 3 -3 4 -12 1 -19z m931 -9 c-3 -8 -7 -3 -11 10 -4 17
-3 21 5 13 5 -5 8 -16 6 -23z m-941 -56 c-3 -10 -5 -4 -5 12 0 17 2 24 5 18 2
-7 2 -21 0 -30z m962 -62 c1 -77 -5 -60 -11 29 -3 42 -2 64 2 50 4 -14 8 -49
9 -79z m-12 -93 c-3 -8 -6 -5 -6 6 -1 11 2 17 5 13 3 -3 4 -12 1 -19z m-57
-138 c-6 -11 -13 -20 -16 -20 -2 0 0 9 6 20 6 11 13 20 16 20 2 0 0 -9 -6 -20z
m-20 -34 c0 -2 -8 -10 -17 -17 -16 -13 -17 -12 -4 4 13 16 21 21 21 13z m-55
-66 c-3 -5 -12 -10 -18 -10 -7 0 -6 4 3 10 19 12 23 12 15 0z"/>
<path d="M8314 3348 l-29 -33 33 29 c17 17 32 31 32 33 0 8 -8 1 -36 -29z"/>
</g>
</svg>
